<?xml version="1.0" encoding="UTF-8"?><svg id="Layer_1" xmlns="http://www.w3.org/2000/svg" viewBox="0 0 88 88"><defs><style>.cls-1{fill:#206095;}</style></defs><path class="cls-1" d="m73.65,23.01h-30.49c-1.68,0-3.05,1.36-3.05,3.05v43.65c0,1.68,1.36,3.05,3.05,3.05h9.15v-.03h12.19v.03h9.15c1.68,0,3.05-1.36,3.05-3.05V26.06c0-1.68-1.36-3.05-3.05-3.05Zm-12.19,9.15h6.1v6.1h-6.1v-6.1Zm0,12.19h6.1v6.1h-6.1v-6.1Zm0,12.19h6.1v6.1h-6.1v-6.1Zm-12.19-24.39h6.1v6.1h-6.1v-6.1Zm0,12.19h6.1v6.1h-6.1v-6.1Zm0,12.19h6.1v6.1h-6.1v-6.1Z"/><path class="cls-1" d="m45.8,11.79H15.31c-1.68,0-3.05,1.36-3.05,3.05v54.87c0,1.68,1.36,3.05,3.05,3.05h9.15v-.03h2v-12.12h8.19v12.12h2v.03h9.15c1.68,0,3.05-1.36,3.05-3.05V14.84c0-1.68-1.36-3.05-3.05-3.05Zm-18.29,39.63h-6.1v-6.1h6.1v6.1Zm0-12.19h-6.1v-6.1h6.1v6.1Zm0-12.19h-6.1v-6.1h6.1v6.1Zm12.19,24.39h-6.1v-6.1h6.1v6.1Zm0-12.19h-6.1v-6.1h6.1v6.1Zm0-12.19h-6.1v-6.1h6.1v6.1Z"/></svg>