<?xml version="1.0" encoding="UTF-8"?><svg id="Layer_1" xmlns="http://www.w3.org/2000/svg" viewBox="0 0 88 88"><defs><style>.cls-1{fill:#fff;}</style></defs><path class="cls-1" d="m87.01,33.85l-12.46-16.43c-.37-.48-.82-.85-1.32-1.12-1.46-.88-3.39-.71-4.66.53l-9.73,10.83-12.43-13.95c-1.39-1.22-3.64-1.22-5.03,0l-12.22,13.95-9.83-10.78c-.08-.08-.18-.14-.26-.21l.02-.03c-.08-.06-.17-.1-.25-.15-.1-.07-.2-.13-.31-.19-.08-.04-.15-.08-.23-.12-.9-.43-1.92-.49-2.86-.18-.05.02-.11.03-.16.05-.06.02-.12.05-.18.08-.65.27-1.25.69-1.71,1.29L.94,33.85c-.34.45-.25,1.08.2,1.42l.54.41c.45.34,1.08.25,1.42-.2l1.47-1.94v38.96c0,1.1.89,1.98,1.98,1.98h.05c.08,0,.15.02.23.02h5.11v-.02h.89v-12.13h7.43v12.14h19.92v-12.14h7.43v12.14h19.99v-12.14h7.43v12.13h1.22v.02h4.95c.08,0,.15-.01.23-.02,1.1,0,1.98-.89,1.98-1.98v-38.91l1.44,1.9c.34.45.98.53,1.42.2l.54-.41c.45-.34.53-.98.2-1.42ZM19.56,51.08h-6.23v-6.23h6.23v6.23Zm0-11.91h-6.23v-6.23h6.23v6.23Zm9.93,34.13c0,.14-.11.25-.25.25s-.25-.11-.25-.25v-1.07c0-.14.11-.25.25-.25s.25.11.25.25v1.07Zm0-3.25c0,.14-.11.25-.25.25s-.25-.11-.25-.25v-2.18c0-.14.11-.25.25-.25s.25.11.25.25v2.18Zm0-4.35c0,.14-.11.25-.25.25s-.25-.11-.25-.25v-2.18c0-.14.11-.25.25-.25s.25.11.25.25v2.18Zm0-4.35c0,.14-.11.25-.25.25s-.25-.11-.25-.25v-2.18c0-.14.11-.25.25-.25s.25.11.25.25v2.18Zm0-4.35c0,.14-.11.25-.25.25s-.25-.11-.25-.25v-2.18c0-.14.11-.25.25-.25s.25.11.25.25v2.18Zm0-4.35c0,.14-.11.25-.25.25s-.25-.11-.25-.25v-2.18c0-.14.11-.25.25-.25s.25.11.25.25v2.18Zm0-4.35c0,.14-.11.25-.25.25s-.25-.11-.25-.25v-2.18c0-.14.11-.25.25-.25s.25.11.25.25v2.18Zm0-4.35c0,.14-.11.25-.25.25s-.25-.11-.25-.25v-2.18c0-.14.11-.25.25-.25s.25.11.25.25v2.18Zm0-4.35c0,.14-.11.25-.25.25s-.25-.11-.25-.25v-2.18c0-.14.11-.25.25-.25s.25.11.25.25v2.18Zm0-4.35c0,.14-.11.25-.25.25s-.25-.11-.25-.25v-2.18c0-.14.11-.25.25-.25s.25.11.25.25v2.18Zm0-4.35c0,.14-.11.25-.25.25s-.25-.11-.25-.25v-1.07c0-.14.11-.25.25-.25s.25.11.25.25v1.07Zm17.43,20.22h-6.23v-6.23h6.23v6.23Zm0-11.91h-6.23v-6.23h6.23v6.23Zm12.3,34.13c0,.14-.11.25-.25.25s-.25-.11-.25-.25v-1.07c0-.14.11-.25.25-.25s.25.11.25.25v1.07Zm0-3.25c0,.14-.11.25-.25.25s-.25-.11-.25-.25v-2.18c0-.14.11-.25.25-.25s.25.11.25.25v2.18Zm0-4.35c0,.14-.11.25-.25.25s-.25-.11-.25-.25v-2.18c0-.14.11-.25.25-.25s.25.11.25.25v2.18Zm0-4.35c0,.14-.11.25-.25.25s-.25-.11-.25-.25v-2.18c0-.14.11-.25.25-.25s.25.11.25.25v2.18Zm0-4.35c0,.14-.11.25-.25.25s-.25-.11-.25-.25v-2.18c0-.14.11-.25.25-.25s.25.11.25.25v2.18Zm0-4.35c0,.14-.11.25-.25.25s-.25-.11-.25-.25v-2.18c0-.14.11-.25.25-.25s.25.11.25.25v2.18Zm0-4.35c0,.14-.11.25-.25.25s-.25-.11-.25-.25v-2.18c0-.14.11-.25.25-.25s.25.11.25.25v2.18Zm0-4.35c0,.14-.11.25-.25.25s-.25-.11-.25-.25v-2.18c0-.14.11-.25.25-.25s.25.11.25.25v2.18Zm0-4.35c0,.14-.11.25-.25.25s-.25-.11-.25-.25v-2.18c0-.14.11-.25.25-.25s.25.11.25.25v2.18Zm0-4.35c0,.14-.11.25-.25.25s-.25-.11-.25-.25v-2.18c0-.14.11-.25.25-.25s.25.11.25.25v2.18Zm0-4.35c0,.14-.11.25-.25.25s-.25-.11-.25-.25v-1.07c0-.14.11-.25.25-.25s.25.11.25.25v1.07Zm15.12,20.22h-6.23v-6.23h6.23v6.23Zm0-11.91h-6.23v-6.23h6.23v6.23Z"/></svg>