<?xml version="1.0" encoding="UTF-8"?><svg id="Layer_1" xmlns="http://www.w3.org/2000/svg" viewBox="0 0 88 88"><defs><style>.cls-1{fill:#206095;}</style></defs><path class="cls-1" d="m76.99,41.08l-7.12-7.12v-15.01c0-1.41-1.14-2.56-2.56-2.56h-5.12c-1.41,0-2.56,1.15-2.56,2.56v4.77l-10.2-10.2c-3-3-7.86-3-10.86,0l-27.56,27.56c-.75.75-.75,1.97,0,2.72l.91.91c.75.75,1.97.75,2.72,0l4.03-4.03v28.21c0,2.11,1.73,3.84,3.84,3.84h16.16s8.99,0,8.99,0v-15.8h10.64v15.81h7.74c2.13,0,3.84-1.73,3.84-3.84v-27.68l3.5,3.5c.75.75,1.97.75,2.72,0l.91-.91c.75-.75.75-1.97,0-2.72Zm-39.18,8.35h-10.08v-10.08h10.08v10.08Z"/></svg>