<?xml version="1.0" encoding="UTF-8"?><svg id="Layer_1" xmlns="http://www.w3.org/2000/svg" viewBox="0 0 88 88"><defs><style>.cls-1{fill:#206095;}</style></defs><path class="cls-1" d="m87.08,38.66l-5.61-6.11v-12.14c0-1.01-.82-1.83-1.83-1.83h-3.83c-1.01,0-1.83.82-1.83,1.83v4l-8.93-9.72c-1.15-1.25-2.64-1.9-4.15-1.95v-.02H27.45c-1.62-.04-3.26.6-4.5,1.95l-8.33,9.06v-3.33c0-1.01-.82-1.83-1.83-1.83h-3.83c-1.01,0-1.83.82-1.83,1.83v11.47l-6.22,6.76c-.6.65-.6,1.71,0,2.36l.72.79c.6.65,1.57.65,2.17,0l3.22-3.5v32.02c0,2.06,1.35,3.74,3.02,3.77h0s18.23.01,18.23.01v-13.18h8.58v13.18h6.14s.06.01.08.01h4.62s3.61-.01,3.61-.01v-13.18h8.58v13.18h5.01s12.98.01,12.98.01c1.69,0,3.07-1.7,3.07-3.78v-32.02l3.22,3.5c.6.65,1.57.65,2.17,0l.72-.79c.6-.65.6-1.71,0-2.36Zm-65.02,10.84h-7.74v-7.74h7.74v7.74Zm22.28,23.13c0,.14-.11.25-.25.25s-.25-.11-.25-.25v-1.07c0-.14.11-.25.25-.25s.25.11.25.25v1.07Zm0-3.29c0,.14-.11.25-.25.25s-.25-.11-.25-.25v-2.22c0-.14.11-.25.25-.25s.25.11.25.25v2.22Zm0-4.43c0,.14-.11.25-.25.25s-.25-.11-.25-.25v-2.22c0-.14.11-.25.25-.25s.25.11.25.25v2.22Zm0-4.43c0,.14-.11.25-.25.25s-.25-.11-.25-.25v-2.22c0-.14.11-.25.25-.25s.25.11.25.25v2.22Zm0-4.43c0,.14-.11.25-.25.25s-.25-.11-.25-.25v-2.22c0-.14.11-.25.25-.25s.25.11.25.25v2.22Zm0-4.43c0,.14-.11.25-.25.25s-.25-.11-.25-.25v-2.22c0-.14.11-.25.25-.25s.25.11.25.25v2.22Zm0-4.43c0,.14-.11.25-.25.25s-.25-.11-.25-.25v-2.22c0-.14.11-.25.25-.25s.25.11.25.25v2.22Zm0-4.43c0,.14-.11.25-.25.25s-.25-.11-.25-.25v-2.22c0-.14.11-.25.25-.25s.25.11.25.25v2.22Zm0-4.43c0,.14-.11.25-.25.25s-.25-.11-.25-.25v-2.22c0-.14.11-.25.25-.25s.25.11.25.25v2.22Zm0-4.43c0,.14-.11.25-.25.25s-.25-.11-.25-.25v-2.22c0-.14.11-.25.25-.25s.25.11.25.25v2.22Zm0-4.43c0,.14-.11.25-.25.25s-.25-.11-.25-.25v-2.22c0-.14.11-.25.25-.25s.25.11.25.25v2.22Zm0-4.43c0,.14-.11.25-.25.25s-.25-.11-.25-.25v-2.22c0-.14.11-.25.25-.25s.25.11.25.25v2.22Zm0-4.43c0,.14-.11.25-.25.25s-.25-.11-.25-.25v-2.22c0-.14.11-.25.25-.25s.25.11.25.25v2.22Zm0-4.43c0,.14-.11.25-.25.25s-.25-.11-.25-.25v-1.07c0-.14.11-.25.25-.25s.25.11.25.25v1.07Zm28.78,33.36h-7.74v-7.74h7.74v7.74Z"/></svg>