<?xml version="1.0" encoding="UTF-8"?><svg id="Layer_1" xmlns="http://www.w3.org/2000/svg" viewBox="0 0 88 88"><defs><style>.cls-1{fill:#fff;}</style></defs><path class="cls-1" d="m87.63,31.69l-15.88-15.81c-.67-.78-1.51-1.24-2.38-1.42v-.11H18.79v.09c-.9.16-1.76.63-2.45,1.42L.31,31.68c-.44.5-.44,1.31,0,1.81l.53.6c.44.5,1.14.5,1.58,0l1.62-1.86v37.57c0,1.59,1.03,2.89,2.29,2.89h3.87v.02h4.27s4.31,0,4.31,0v-15.81h10.64v15.81h13.66v-15.81h10.64v15.81h13.66v-15.81h10.64v15.8h3.33s.32-.01.32-.01c1.26,0,2.29-1.3,2.29-2.89v-37.52l1.56,1.81c.43.5,1.13.5,1.56,0l.52-.6c.43-.5.43-1.31,0-1.81ZM19.53,49.43h-10.08v-10.08h10.08v10.08Zm24.1,0h-10.08v-10.08h10.08v10.08Zm24.1,0h-10.08v-10.08h10.08v10.08Z"/><rect class="cls-1" x="22.6" y="9.87" width="7.48" height="18.64" rx="1.83" ry="1.83"/><rect class="cls-1" x="40.21" y="9.87" width="7.48" height="18.64" rx="1.83" ry="1.83"/><rect class="cls-1" x="57.82" y="9.87" width="7.48" height="18.64" rx="1.83" ry="1.83"/></svg>